<?xml version="1.0" encoding="UTF-8"?>
<svg xmlns="http://www.w3.org/2000/svg" xmlns:xlink="http://www.w3.org/1999/xlink" width="256px" height="256px" viewBox="0 0 256 255" version="1.1">
<g id="surface1">
<path style=" stroke:none;fill-rule:nonzero;fill:rgb(100%,100%,100%);fill-opacity:1;" d="M 127.976562 163.476562 C 110.605469 163.476562 96.113281 151.207031 92.671875 134.902344 L 34.875 134.902344 C 38.960938 182.316406 78.824219 219.515625 127.375 219.515625 C 175.925781 219.515625 215.835938 182.316406 219.878906 134.902344 L 163.285156 134.902344 C 159.84375 151.25 145.351562 163.476562 127.976562 163.476562 Z M 127.976562 163.476562 "/>
<path style=" stroke:none;fill-rule:nonzero;fill:rgb(87.45098%,87.45098%,87.45098%);fill-opacity:1;" d="M 148.621094 217.113281 C 187.152344 208.101562 216.4375 175.191406 219.878906 134.902344 L 197.085938 134.902344 C 194.804688 171.457031 175.582031 202.4375 148.621094 217.113281 Z M 148.621094 217.113281 "/>
<path style=" stroke:none;fill-rule:nonzero;fill:rgb(100%,100%,100%);fill-opacity:1;" d="M 149.265625 127.480469 C 149.222656 127.480469 149.222656 127.480469 149.265625 127.480469 C 149.222656 124.859375 148.75 122.371094 147.890625 120.054688 C 144.878906 111.988281 137.09375 106.28125 127.976562 106.28125 C 118.863281 106.28125 111.078125 112.03125 108.066406 120.054688 C 107.207031 122.371094 106.734375 124.859375 106.734375 127.480469 L 106.777344 127.480469 C 106.777344 130.097656 107.25 132.585938 108.109375 134.902344 C 111.121094 142.96875 118.90625 148.675781 128.023438 148.675781 C 137.136719 148.675781 144.921875 142.925781 147.933594 134.902344 C 148.792969 132.628906 149.265625 130.097656 149.265625 127.480469 Z M 149.265625 127.480469 "/>
<path style=" stroke:none;fill-rule:nonzero;fill:rgb(100%,10.980392%,10.980392%);fill-opacity:1;" d="M 128.023438 91.523438 C 145.394531 91.523438 159.886719 103.792969 163.328125 120.097656 L 221.125 120.097656 C 217.039062 72.640625 177.175781 35.441406 128.582031 35.441406 C 79.988281 35.441406 40.164062 72.640625 36.078125 120.054688 L 92.714844 120.054688 C 96.15625 103.75 110.648438 91.523438 128.023438 91.523438 Z M 128.023438 91.523438 "/>
<path style=" stroke:none;fill-rule:nonzero;fill:rgb(87.45098%,9.411765%,9.411765%);fill-opacity:1;" d="M 197.085938 120.054688 L 221.082031 120.054688 C 217.554688 79.078125 187.28125 45.695312 147.761719 37.414062 C 175.195312 51.875 194.761719 83.15625 197.085938 120.054688 Z M 197.085938 120.054688 "/>
<path style=" stroke:none;fill-rule:nonzero;fill:rgb(0%,0%,0%);fill-opacity:1;" d="M 128.582031 35.441406 C 177.175781 35.441406 217.039062 72.640625 221.082031 120.054688 L 163.285156 120.054688 C 159.84375 103.75 145.351562 91.480469 127.976562 91.480469 C 110.605469 91.480469 96.113281 103.75 92.671875 120.054688 L 36.078125 120.054688 C 40.164062 72.640625 80.03125 35.441406 128.582031 35.441406 Z M 147.890625 120.054688 C 148.75 122.371094 149.222656 124.859375 149.222656 127.480469 L 149.265625 127.480469 C 149.265625 130.097656 148.792969 132.585938 147.933594 134.902344 C 144.921875 142.96875 137.136719 148.675781 128.023438 148.675781 C 118.90625 148.675781 111.121094 142.925781 108.109375 134.902344 C 107.25 132.585938 106.777344 130.097656 106.777344 127.480469 L 106.734375 127.480469 C 106.734375 124.859375 107.207031 122.371094 108.066406 120.054688 C 111.078125 111.988281 118.863281 106.28125 127.976562 106.28125 C 137.09375 106.28125 144.878906 112.03125 147.890625 120.054688 Z M 127.375 219.558594 C 78.78125 219.558594 38.917969 182.359375 34.875 134.945312 L 92.671875 134.945312 C 96.113281 151.25 110.605469 163.519531 127.976562 163.519531 C 145.351562 163.519531 159.84375 151.25 163.285156 134.945312 L 219.921875 134.945312 C 215.835938 182.316406 175.96875 219.558594 127.375 219.558594 Z M 127.976562 17.761719 C 67.257812 17.761719 18.019531 66.894531 18.019531 127.480469 C 18.019531 188.0625 67.257812 237.195312 127.976562 237.195312 C 188.699219 237.195312 237.980469 188.105469 237.980469 127.480469 C 237.980469 66.851562 188.742188 17.761719 127.976562 17.761719 Z M 127.976562 17.761719 "/>
</g>
</svg>
